<svg width="562" height="359" xmlns="http://www.w3.org/2000/svg" xmlns:xlink="http://www.w3.org/1999/xlink" xml:space="preserve" overflow="hidden"><defs><clipPath id="clip0"><rect x="0" y="0" width="562" height="359"/></clipPath></defs><g clip-path="url(#clip0)"><path d="M0 0 566.429 0 566.429 424.822 0 424.822Z" fill="#FFFFFF" transform="scale(1 1.00089)"/><text fill="#FFFFFF" font-family="Times New Roman,Times New Roman_MSFontService,sans-serif" font-weight="400" font-size="23.3333" transform="matrix(0.472025 0 0 0.472444 5.66429 425)">Econometría</text><text fill="#FFFFFF" font-family="Times New Roman,Times New Roman_MSFontService,sans-serif" font-weight="400" font-size="23.3333" transform="matrix(0.472025 0 0 0.472444 61.933 425)">, </text><text fill="#FFFFFF" font-family="Times New Roman,Times New Roman_MSFontService,sans-serif" font-weight="400" font-size="23.3333" transform="matrix(0.472025 0 0 0.472444 67.44 425)">2007</text><text fill="#FFFFFF" font-family="Times New Roman,Times New Roman_MSFontService,sans-serif" font-weight="400" font-size="23.3333" transform="matrix(0.472025 0 0 0.472444 89.4487 425)">-</text><text fill="#FFFFFF" font-family="Times New Roman,Times New Roman_MSFontService,sans-serif" font-weight="400" font-size="23.3333" transform="matrix(0.472025 0 0 0.472444 93.087 425)">I</text><text fill="#FFFFFF" font-family="Times New Roman,Times New Roman_MSFontService,sans-serif" font-weight="400" font-size="23.3333" transform="matrix(0.472025 0 0 0.472444 248.757 425)">FACEA</text><text fill="#FFFFFF" font-family="Times New Roman,Times New Roman_MSFontService,sans-serif" font-weight="400" font-size="23.3333" transform="matrix(0.472025 0 0 0.472444 284.029 425)">-</text><text fill="#FFFFFF" font-family="Times New Roman,Times New Roman_MSFontService,sans-serif" font-weight="400" font-size="23.3333" transform="matrix(0.472025 0 0 0.472444 287.667 425)">PUC</text><text fill="#FFFFFF" font-family="Times New Roman,Times New Roman_MSFontService,sans-serif" font-weight="400" font-size="23.3333" transform="matrix(0.472025 0 0 0.472444 462.741 425)">P</text><text fill="#FFFFFF" font-family="Times New Roman,Times New Roman_MSFontService,sans-serif" font-weight="400" font-size="23.3333" transform="matrix(0.472025 0 0 0.472444 468.838 425)">rof</text><text fill="#FFFFFF" font-family="Times New Roman,Times New Roman_MSFontService,sans-serif" font-weight="400" font-size="23.3333" transform="matrix(0.472025 0 0 0.472444 481.621 425)">. </text><text fill="#FFFFFF" font-family="Times New Roman,Times New Roman_MSFontService,sans-serif" font-weight="400" font-size="23.3333" transform="matrix(0.472025 0 0 0.472444 487.128 425)">Verónica Gil</text><path d="M0 413.021 566.429 413.021 566.429 415.854 0 415.854Z" fill="#FFFF00" transform="scale(1 1.00089)"/><path d="M18.881 276.508C18.881 276.508 125.972 247.09 170.126 221.509 214.279 195.927 248.796 122.726 284.002 122.726 319.207 122.726 343.791 195.829 381.455 221.509 419.119 247.188 483.037 265.095 509.787 276.606" stroke="#00FF00" stroke-width="1.77009" stroke-linejoin="round" stroke-miterlimit="10" fill="none" fill-rule="evenodd" transform="scale(1 1.00089)"/><path d="M118.242 263.528C118.242 263.528 193.864 257.525 221.104 217.577 248.344 177.629 261.128 23.8372 281.484 24.034 301.84 24.2308 318.558 179.006 343.241 218.954 367.923 258.903 411.782 254.376 429.778 263.626" stroke="#C00000" stroke-width="2.16344" stroke-linejoin="round" stroke-miterlimit="10" fill="none" fill-rule="evenodd" transform="scale(1 1.00089)"/><path d="M28.5575 288.171 543.064 288.171" stroke="#808080" stroke-width="0.590031" stroke-linejoin="round" stroke-miterlimit="10" fill="none" fill-rule="evenodd" transform="scale(1 1.00089)"/><path d="M283.451 0.236012 283.451 283.451" stroke="#808080" stroke-width="0.590031" stroke-linejoin="round" stroke-miterlimit="10" fill="none" fill-rule="evenodd" transform="scale(1 1.00089)"/><path d="M283.451 302.332 307.052 302.332 307.052 330.653 283.451 330.653Z" stroke="#FFFFFF" stroke-width="0.590031" stroke-miterlimit="8" fill="none" transform="scale(1 1.00089)"/><text font-family="Symbol,Symbol_MSFontService,sans-serif" font-weight="400" font-size="40" transform="matrix(0.472025 0 0 0.472444 288.879 324)"></text><path d="M316.492 127.388 345.601 127.388 345.601 127.978 316.492 127.978ZM344.814 125.323 349.534 127.683 344.814 130.043Z" fill="#003300" transform="scale(1 1.00089)"/><text font-family="Symbol,Symbol_MSFontService,sans-serif" font-weight="400" font-size="40" transform="matrix(0.472025 0 0 0.472444 359.683 139)"></text><text font-family="Times New Roman,Times New Roman_MSFontService,sans-serif" font-weight="400" font-size="40" transform="matrix(0.472025 0 0 0.472444 369.516 139)">*</text><path d="M0.063998-0.28799 38.7063 8.29918 38.5783 8.87515-0.063998 0.28799ZM38.3864 6.11262 42.4822 9.44049 37.3624 10.7204Z" fill="#808080" transform="matrix(1 0 0 -1.00089 382.576 222.285)"/><text font-family="Symbol,Symbol_MSFontService,sans-serif" font-weight="400" font-size="40" transform="matrix(0.472025 0 0 0.472444 444.647 234)"></text><text font-family="Times New Roman,Times New Roman_MSFontService,sans-serif" font-weight="400" font-size="40" transform="matrix(0.472025 0 0 0.472444 459.201 234)">**</text><path d="M184.326 212.647 184.326 288.171" stroke="#808080" stroke-width="0.590031" stroke-linejoin="round" stroke-miterlimit="10" stroke-dasharray="0.590031 0.590031" fill="none" fill-rule="evenodd" transform="scale(1 1.00089)"/><path d="M373.135 217.367 373.135 292.891" stroke="#808080" stroke-width="0.590031" stroke-linejoin="round" stroke-miterlimit="10" stroke-dasharray="0.590031 0.590031" fill="none" fill-rule="evenodd" transform="scale(1 1.00089)"/></g></svg>