<svg width="555" height="407" xmlns="http://www.w3.org/2000/svg" xmlns:xlink="http://www.w3.org/1999/xlink" xml:space="preserve" overflow="hidden"><defs><clipPath id="clip0"><rect x="0" y="0" width="555" height="407"/></clipPath></defs><g clip-path="url(#clip0)"><path d="M0 0 566.934 0 566.934 425.2 0 425.2Z" fill="#FFFFFF" transform="scale(1 1.00001)"/><text fill="#FFFFFF" font-family="Times New Roman,Times New Roman_MSFontService,sans-serif" font-weight="400" font-size="23.3333" transform="matrix(0.472445 0 0 0.472448 5.66934 425)">Econometría</text><text fill="#FFFFFF" font-family="Times New Roman,Times New Roman_MSFontService,sans-serif" font-weight="400" font-size="23.3333" transform="matrix(0.472445 0 0 0.472448 61.9882 425)">, </text><text fill="#FFFFFF" font-family="Times New Roman,Times New Roman_MSFontService,sans-serif" font-weight="400" font-size="23.3333" transform="matrix(0.472445 0 0 0.472448 67.5 425)">2007</text><text fill="#FFFFFF" font-family="Times New Roman,Times New Roman_MSFontService,sans-serif" font-weight="400" font-size="23.3333" transform="matrix(0.472445 0 0 0.472448 89.5283 425)">-</text><text fill="#FFFFFF" font-family="Times New Roman,Times New Roman_MSFontService,sans-serif" font-weight="400" font-size="23.3333" transform="matrix(0.472445 0 0 0.472448 93.1699 425)">I</text><text fill="#FFFFFF" font-family="Times New Roman,Times New Roman_MSFontService,sans-serif" font-weight="400" font-size="23.3333" transform="matrix(0.472445 0 0 0.472448 248.979 425)">FACEA</text><text fill="#FFFFFF" font-family="Times New Roman,Times New Roman_MSFontService,sans-serif" font-weight="400" font-size="23.3333" transform="matrix(0.472445 0 0 0.472448 284.282 425)">-</text><text fill="#FFFFFF" font-family="Times New Roman,Times New Roman_MSFontService,sans-serif" font-weight="400" font-size="23.3333" transform="matrix(0.472445 0 0 0.472448 287.924 425)">PUC</text><text fill="#FFFFFF" font-family="Times New Roman,Times New Roman_MSFontService,sans-serif" font-weight="400" font-size="23.3333" transform="matrix(0.472445 0 0 0.472448 463.153 425)">P</text><text fill="#FFFFFF" font-family="Times New Roman,Times New Roman_MSFontService,sans-serif" font-weight="400" font-size="23.3333" transform="matrix(0.472445 0 0 0.472448 469.256 425)">rof</text><text fill="#FFFFFF" font-family="Times New Roman,Times New Roman_MSFontService,sans-serif" font-weight="400" font-size="23.3333" transform="matrix(0.472445 0 0 0.472448 482.05 425)">. </text><text fill="#FFFFFF" font-family="Times New Roman,Times New Roman_MSFontService,sans-serif" font-weight="400" font-size="23.3333" transform="matrix(0.472445 0 0 0.472448 487.562 425)">Verónica Gil</text><path d="M0 413.389 566.934 413.389 566.934 416.224 0 416.224Z" fill="#FFFF00" transform="scale(1 1.00001)"/><path d="M0.295278-7.17601e-08 0.295339 251.184-0.295217 251.184-0.295278 7.17601e-08ZM2.36229 250.396 6.20008e-05 255.12-2.36216 250.396Z" transform="matrix(1 0 0 -1.00001 56.9296 345.123)"/><path d="M56.9296 344.826 312.837 344.826 312.837 345.416 56.9296 345.416ZM312.05 342.759 316.774 345.121 312.05 347.483Z" transform="scale(1 1.00001)"/><text font-family="Arial,Arial_MSFontService,sans-serif" font-weight="400" font-size="23.3333" transform="matrix(0.472445 0 0 0.472448 240.218 145)">^</text><path d="M56.6934 344.885C75.9847 297.64 95.2766 250.396 113.387 231.498 131.497 212.6 144.096 213.388 165.356 231.498 186.616 249.608 228.348 322.05 240.947 340.16" stroke="#FF0000" stroke-width="1.96852" stroke-linejoin="round" stroke-miterlimit="10" fill="none" fill-rule="evenodd" transform="scale(1 1.00001)"/><path d="M94.7252 344.298C95.2175 344.199 96.7922 343.412 97.5797 343.412 98.3668 343.412 98.9574 344.199 99.4497 344.298 99.942 344.396 99.3514 346.365 100.434 344.298 101.517 342.231 99.1544 369.688 106.044 332.095 112.934 294.501 132.029 151.803 141.97 118.54 151.911 85.2763 156.931 100.628 165.592 132.711 174.253 164.794 187.344 276.59 193.939 311.231 200.533 345.872 202.108 334.752 205.258 340.558 207.915 346.069 211.262 345.085 212.836 346.266" stroke="#00FF00" stroke-width="2.16537" stroke-linejoin="round" stroke-miterlimit="10" fill="none" fill-rule="evenodd" transform="scale(1 1.00001)"/><path d="M137.245 217.561 137.245 345.121" stroke="#FF6600" stroke-width="0.590556" stroke-linejoin="round" stroke-miterlimit="10" stroke-dasharray="2.36222 1.77167" fill="none" fill-rule="evenodd" transform="scale(1 1.00001)"/><path d="M151.419 99.4497 151.419 345.121" stroke="#00FF00" stroke-width="0.590556" stroke-linejoin="round" stroke-miterlimit="10" stroke-dasharray="2.36222 1.77167" fill="none" fill-rule="evenodd" transform="scale(1 1.00001)"/><text font-family="Symbol,Symbol_MSFontService,sans-serif" font-weight="400" font-size="40" transform="matrix(0.472445 0 0 0.472448 103.741 394)"></text><path d="M151.627 344.912 172.466 365.75 172.048 366.168 151.21 345.33ZM173.37 363.732 175.041 368.743 170.03 367.073Z" fill="#00FF00" transform="scale(1 1.00001)"/><path d="M0.208793-0.208793 21.0471 20.6295 20.6295 21.0471-0.208793 0.208793ZM21.9519 18.6112 23.6222 23.6222 18.6112 21.9519Z" fill="#FF6600" transform="matrix(-1 0 0 1.00001 137.245 345.123)"/><text font-family="Times New Roman,Times New Roman_MSFontService,sans-serif" font-weight="400" font-size="33.3333" transform="matrix(0.472445 0 0 0.472448 156.852 394)">E</text><text font-family="Times New Roman,Times New Roman_MSFontService,sans-serif" font-weight="400" font-size="33.3333" transform="matrix(0.472445 0 0 0.472448 166.471 394)">(</text><text font-family="Symbol,Symbol_MSFontService,sans-serif" font-weight="400" font-size="33.3333" transform="matrix(0.472445 0 0 0.472448 171.714 394)"></text><text font-family="Times New Roman,Times New Roman_MSFontService,sans-serif" font-weight="400" font-size="22.2222" transform="matrix(0.472445 0 0 0.472448 179.883 390)">*</text><text font-family="Times New Roman,Times New Roman_MSFontService,sans-serif" font-weight="400" font-size="33.3333" transform="matrix(0.472445 0 0 0.472448 185.1 394)">)</text><text font-family="Symbol,Symbol_MSFontService,sans-serif" font-weight="400" font-size="33.3333" transform="matrix(0.472445 0 0 0.472448 194.254 394)"></text><text font-family="Symbol,Symbol_MSFontService,sans-serif" font-weight="400" font-size="40" transform="matrix(0.472445 0 0 0.472448 206.852 394)"></text><path d="M170.316 146.399 204.175 146.399 204.175 146.989 170.316 146.989ZM203.388 144.332 208.112 146.694 203.388 149.056Z" transform="scale(1 1.00001)"/><text font-family="Times New Roman,Times New Roman_MSFontService,sans-serif" font-weight="400" font-size="33.3333" transform="matrix(0.472445 0 0 0.472448 222.994 155)">f</text><text font-family="Times New Roman,Times New Roman_MSFontService,sans-serif" font-weight="400" font-size="33.3333" transform="matrix(0.472445 0 0 0.472448 232.148 155)">(</text><text font-family="Symbol,Symbol_MSFontService,sans-serif" font-weight="400" font-size="33.3333" transform="matrix(0.472445 0 0 0.472448 237.364 155)"></text><text font-family="Times New Roman,Times New Roman_MSFontService,sans-serif" font-weight="400" font-size="22.2222" transform="matrix(0.472445 0 0 0.472448 245.533 150)">*</text><text font-family="Times New Roman,Times New Roman_MSFontService,sans-serif" font-weight="400" font-size="33.3333" transform="matrix(0.472445 0 0 0.472448 250.75 155)">)</text><text font-family="Times New Roman,Times New Roman_MSFontService,sans-serif" font-weight="400" font-size="33.3333" transform="matrix(0.472445 0 0 0.472448 246.616 281)">f</text><text font-family="Times New Roman,Times New Roman_MSFontService,sans-serif" font-weight="400" font-size="33.3333" transform="matrix(0.472445 0 0 0.472448 255.77 281)">(</text><text font-family="Symbol,Symbol_MSFontService,sans-serif" font-weight="400" font-size="40" transform="matrix(0.472445 0 0 0.472448 260.987 281)"></text><text font-family="Times New Roman,Times New Roman_MSFontService,sans-serif" font-weight="400" font-size="33.3333" transform="matrix(0.472445 0 0 0.472448 270.829 281)">)</text><text font-family="Arial,Arial_MSFontService,sans-serif" font-weight="400" font-size="23.3333" transform="matrix(0.472445 0 0 0.472448 263.841 266)">^</text><path d="M198.663 273.959 232.522 273.959 232.522 274.55 198.663 274.55ZM231.734 271.892 236.459 274.254 231.734 276.617Z" transform="scale(1 1.00001)"/></g></svg>